<?xml version="1.0" standalone="no"?>
<!DOCTYPE svg PUBLIC "-//W3C//DTD SVG 20010904//EN"
 "http://www.w3.org/TR/2001/REC-SVG-20010904/DTD/svg10.dtd">
<svg version="1.0" xmlns="http://www.w3.org/2000/svg"
 width="1330.000000pt" height="287.000000pt" viewBox="0 0 1330.000000 287.000000"
 preserveAspectRatio="xMidYMid meet">

<g transform="translate(0.000000,287.000000) scale(0.100000,-0.100000)"
fill="#000000" stroke="none">
<path d="M679 2490 c-237 -28 -435 -142 -509 -294 -56 -114 -59 -283 -8 -394
12 -26 50 -75 85 -109 75 -74 216 -148 358 -187 241 -66 345 -96 398 -116 128
-48 184 -123 158 -211 -28 -93 -122 -139 -298 -147 -138 -6 -233 13 -353 70
-71 34 -100 56 -179 135 -51 52 -94 93 -96 91 -12 -14 -195 -320 -195 -327 0
-17 117 -116 187 -157 99 -59 204 -100 323 -125 148 -31 420 -32 564 -1 177
38 327 126 400 236 46 70 65 123 75 211 26 232 -62 381 -293 495 -73 35 -162
66 -317 109 -255 71 -338 102 -384 145 -60 57 -59 134 4 197 46 47 119 69 224
69 154 0 288 -56 413 -173 l75 -70 130 129 129 128 -38 39 c-185 192 -527 295
-853 257z"/>
<path d="M5230 2480 c-63 -4 -139 -8 -168 -9 l-53 -1 3 -454 c2 -250 0 -449
-3 -443 -3 7 -11 44 -17 83 -14 89 -51 199 -87 260 -90 153 -266 225 -477 196
-282 -40 -408 -258 -408 -707 0 -451 127 -669 412 -707 172 -23 333 23 418
120 55 62 105 169 132 283 l23 94 6 -235 c4 -129 7 -236 8 -237 0 -2 84 -3
186 -3 l185 0 0 885 0 885 -22 -2 c-13 -1 -75 -5 -138 -8z m-450 -666 c81 -24
169 -115 201 -209 34 -101 34 -287 1 -394 -21 -65 -32 -83 -86 -137 -49 -49
-74 -66 -116 -78 -110 -33 -204 -17 -276 47 -83 73 -124 192 -124 362 0 171
41 289 124 362 25 22 60 45 78 50 50 16 138 15 198 -3z"/>
<path d="M8495 2480 c-60 -4 -136 -8 -167 -9 l-58 -1 0 -875 0 -875 190 0 190
0 0 885 0 885 -22 -2 c-13 -1 -72 -5 -133 -8z"/>
<path d="M6960 1595 l0 -875 200 0 200 0 0 325 0 325 370 0 370 0 0 160 0 160
-370 0 -370 0 0 225 0 225 400 0 400 0 0 165 0 165 -600 0 -600 0 0 -875z"/>
<path d="M1982 2302 l-139 -157 -131 -54 -132 -55 0 -123 0 -123 90 0 90 0 0
-362 c0 -200 5 -394 10 -433 14 -99 60 -187 118 -231 91 -66 213 -84 457 -64
82 6 152 14 155 16 3 3 6 66 8 139 l4 134 -150 3 c-229 5 -222 -10 -222 467
l0 331 179 0 c211 0 191 -18 191 173 l0 127 -185 0 -185 0 0 185 c0 110 -4
185 -9 185 -6 0 -72 -71 -149 -158z"/>
<path d="M9298 2109 c-202 -26 -380 -151 -463 -324 -101 -209 -101 -551 1
-762 70 -146 219 -265 386 -307 140 -36 361 -29 492 15 83 28 196 100 246 157
92 104 142 231 161 411 27 245 -33 479 -161 623 -50 57 -163 129 -246 157
-111 37 -271 49 -416 30z m290 -314 c133 -72 202 -260 175 -476 -27 -210 -132
-327 -303 -337 -105 -6 -172 20 -239 93 -76 84 -96 153 -96 330 0 177 20 246
96 330 68 73 126 96 234 92 66 -3 90 -8 133 -32z"/>
<path d="M2620 1588 c0 -525 6 -639 38 -712 27 -59 81 -117 137 -145 67 -34
179 -47 271 -33 252 39 400 255 448 653 14 112 14 109 15 -258 l1 -373 190 0
190 0 0 684 0 685 -127 -5 c-71 -3 -155 -7 -189 -10 l-61 -5 -6 -267 c-8 -301
-18 -410 -53 -530 -42 -145 -93 -225 -168 -265 -32 -17 -58 -22 -121 -22 -93
0 -130 19 -161 82 -18 35 -19 73 -22 531 l-3 492 -189 0 -190 0 0 -502z"/>
<path d="M5530 1603 c0 -269 5 -526 10 -572 21 -188 125 -290 310 -306 323
-29 516 192 575 660 13 106 13 98 12 -250 -2 -349 -3 -362 -25 -417 -28 -70
-92 -129 -159 -149 -99 -29 -484 -12 -614 26 -12 4 -18 -17 -32 -122 -10 -71
-17 -133 -17 -139 0 -17 16 -21 172 -43 555 -77 869 6 989 264 62 131 62 136
66 868 l4 667 -54 0 c-30 0 -115 -3 -189 -6 l-135 -7 -6 -261 c-9 -348 -36
-515 -102 -647 -58 -114 -120 -153 -240 -154 -93 0 -130 19 -161 82 -18 35
-19 72 -22 516 l-3 477 -190 0 -189 0 0 -487z"/>
<path d="M10140 2084 c0 -7 295 -1265 311 -1326 l10 -38 277 0 277 0 109 538
c60 295 113 546 116 557 6 15 10 6 19 -35 21 -103 201 -1044 201 -1052 0 -4
126 -8 280 -8 154 0 280 1 280 3 0 2 72 309 160 682 88 373 160 680 160 682 0
1 -91 3 -202 3 l-203 0 -115 -650 c-63 -357 -118 -646 -121 -642 -4 4 -55 275
-114 602 -59 327 -111 616 -117 643 l-10 47 -221 -2 -222 -3 -117 -643 c-64
-354 -119 -646 -121 -649 -5 -5 -2 -25 -136 737 l-97 555 -202 3 c-111 1 -202
-1 -202 -4z"/>
</g>
</svg>
